<svg width="20" height="20" viewBox="0 0 20 20" fill="none" xmlns="http://www.w3.org/2000/svg">
<g id="uiw:down">
<path id="Vector" d="M10.103 12.778L16.81 6.08003C16.8751 6.01458 16.9527 5.96286 17.0382 5.92793C17.1236 5.89301 17.2152 5.87559 17.3075 5.87671C17.3999 5.87783 17.491 5.89746 17.5756 5.93445C17.6602 5.97143 17.7365 6.02502 17.8 6.09203C17.9301 6.2291 18.0016 6.41149 17.9994 6.60047C17.9972 6.78944 17.9213 6.97009 17.788 7.10403L10.585 14.297C10.5204 14.3621 10.4434 14.4136 10.3586 14.4486C10.2739 14.4836 10.183 14.5013 10.0912 14.5008C9.99953 14.5002 9.90885 14.4814 9.8245 14.4454C9.74016 14.4094 9.66383 14.3569 9.6 14.291L2.205 6.72003C2.07412 6.58449 2.00098 6.40344 2.00098 6.21503C2.00098 6.02662 2.07412 5.84557 2.205 5.71003C2.26931 5.6438 2.34626 5.59116 2.43129 5.55521C2.51631 5.51926 2.60769 5.50073 2.7 5.50073C2.79231 5.50073 2.88369 5.51926 2.96872 5.55521C3.05374 5.59116 3.13069 5.6438 3.195 5.71003L10.103 12.778Z" fill="#081F10"/>
</g>
</svg>
