<svg width="32" height="32" viewBox="0 0 32 32" fill="none" xmlns="http://www.w3.org/2000/svg">
<path d="M2.667 16C2.667 8.63596 8.63634 2.66663 16.0003 2.66663C23.3643 2.66663 29.3337 8.63596 29.3337 16C29.3337 23.364 23.3643 29.3333 16.0003 29.3333H2.667L6.57234 25.428C5.33238 24.1912 4.34905 22.7216 3.67884 21.1037C3.00864 19.4857 2.66477 17.7512 2.667 16ZM9.10434 26.6666H16.0003C18.11 26.6666 20.1723 26.041 21.9264 24.869C23.6805 23.6969 25.0477 22.031 25.8551 20.0819C26.6624 18.1328 26.8736 15.9881 26.462 13.919C26.0505 11.8499 25.0346 9.94925 23.5428 8.45749C22.051 6.96573 20.1504 5.94983 18.0813 5.53825C16.0122 5.12667 13.8675 5.33791 11.9184 6.14524C9.9693 6.95258 8.3034 8.31975 7.13133 10.0739C5.95926 11.828 5.33367 13.8903 5.33367 16C5.33367 18.8693 6.46834 21.5533 8.45767 23.5426L10.343 25.428L9.10434 26.6666ZM10.667 17.3333H21.3337C21.3337 18.7478 20.7718 20.1043 19.7716 21.1045C18.7714 22.1047 17.4148 22.6666 16.0003 22.6666C14.5858 22.6666 13.2293 22.1047 12.2291 21.1045C11.2289 20.1043 10.667 18.7478 10.667 17.3333Z" fill="#3AAA60"/>
</svg>
