<svg width="24" height="24" viewBox="0 0 24 24" fill="none" xmlns="http://www.w3.org/2000/svg">
<g id="grommet-icons:facebook">
<g clip-path="url(#clip0_67_2847)">
<path id="Vector" fill-rule="evenodd" clip-rule="evenodd" d="M23.0001 0.00014396H1.00012C0.734899 0.00014396 0.187628 -0.187455 9.14037e-05 8.13007e-05C-0.187445 0.187618 0.000115089 0.734927 0.000115089 1.00014V23.0001C0.000115089 23.2654 -0.187439 23.8126 9.70811e-05 24.0001C0.187633 24.1877 0.734899 24.0001 1.00012 24.0001H12.7501V15.0001H9.75012V11.2501H12.7501V8.25014C12.7501 5.15014 14.7131 3.62514 17.4781 3.62514C18.8021 3.62514 19.9411 3.72414 20.2721 3.76714V7.00714L18.3551 7.00814C16.8511 7.00814 16.5001 7.72314 16.5001 8.77114V11.2501H20.2501L19.5001 15.0001H16.5001L16.5601 24.0001H23.0001C23.2653 24.0001 23.8126 24.1876 24.0001 24C24.1876 23.8125 24.0001 23.2654 24.0001 23.0001V1.00014C24.0001 0.734927 24.1876 0.187571 24.0001 3.48762e-05C23.8126 -0.187501 23.2653 0.00014396 23.0001 0.00014396Z" fill="#1F5D34"/>
</g>
</g>
<defs>
<clipPath id="clip0_67_2847">
<rect width="24" height="24" rx="3" fill="white"/>
</clipPath>
</defs>
</svg>
