<svg width="24" height="24" viewBox="0 0 24 24" fill="none" xmlns="http://www.w3.org/2000/svg">
<g id="Frame 1">
<g clip-path="url(#clip0_67_2844)">
<path id="Vector" d="M12 9.14238C11.4349 9.14259 10.8825 9.31036 10.4128 9.62448C9.94298 9.93859 9.57689 10.3849 9.36078 10.9071C9.14466 11.4293 9.08823 12.0038 9.19861 12.558C9.30899 13.1122 9.58122 13.6213 9.98089 14.0208C10.3806 14.4203 10.8897 14.6924 11.444 14.8026C11.9983 14.9127 12.5728 14.8561 13.0948 14.6398C13.6169 14.4235 14.0631 14.0572 14.3771 13.5873C14.691 13.1174 14.8586 12.565 14.8586 11.9999C14.858 11.242 14.5566 10.5154 14.0206 9.97957C13.4846 9.44378 12.7579 9.14267 12 9.14238ZM18.6809 6.94595C18.5354 6.5773 18.3158 6.24246 18.0355 5.96222C17.7553 5.68198 17.4204 5.46232 17.0518 5.31685C15.9268 4.87274 13.2482 4.97238 12 4.97238C10.7518 4.97238 8.07589 4.86899 6.94768 5.31685C6.57902 5.46232 6.24419 5.68198 5.96395 5.96222C5.68371 6.24246 5.46404 6.5773 5.31857 6.94595C4.875 8.07095 4.97411 10.7522 4.97411 11.9993C4.97411 13.2465 4.875 15.9245 5.32071 17.0533C5.46618 17.4219 5.68585 17.7568 5.96609 18.037C6.24633 18.3172 6.58117 18.5369 6.94982 18.6824C8.07482 19.1265 10.7534 19.0268 12.0021 19.0268C13.2509 19.0268 15.9257 19.1302 17.0539 18.6824C17.4226 18.5369 17.7574 18.3172 18.0377 18.037C18.3179 17.7568 18.5376 17.4219 18.683 17.0533C19.1304 15.9283 19.0275 13.247 19.0275 11.9999C19.0275 10.7527 19.1304 8.07524 18.683 6.94649L18.6809 6.94595ZM12 16.3927C11.1312 16.3927 10.2819 16.1351 9.55946 15.6524C8.83706 15.1697 8.27401 14.4836 7.94153 13.681C7.60904 12.8783 7.52205 11.995 7.69155 11.1429C7.86105 10.2907 8.27943 9.50801 8.89378 8.89366C9.50813 8.27931 10.2909 7.86093 11.143 7.69143C11.9951 7.52193 12.8784 7.60893 13.6811 7.94141C14.4838 8.2739 15.1698 8.83694 15.6525 9.55934C16.1352 10.2817 16.3929 11.1311 16.3929 11.9999C16.3936 12.577 16.2804 13.1485 16.0599 13.6818C15.8394 14.2151 15.5158 14.6996 15.1078 15.1077C14.6997 15.5157 14.2152 15.8393 13.6819 16.0598C13.1486 16.2803 12.5771 16.3934 12 16.3927ZM16.5739 8.4481C16.3711 8.4482 16.1728 8.38816 16.0041 8.27555C15.8354 8.16295 15.7039 8.00285 15.6262 7.8155C15.5486 7.62815 15.5282 7.42197 15.5677 7.22303C15.6072 7.0241 15.7048 6.84134 15.8482 6.69789C15.9915 6.55444 16.1742 6.45673 16.3732 6.41712C16.5721 6.37752 16.7783 6.39779 16.9657 6.47538C17.153 6.55297 17.3132 6.68439 17.4259 6.85303C17.5386 7.02166 17.5988 7.21992 17.5988 7.42274C17.5993 7.55742 17.5733 7.6909 17.5221 7.8155C17.471 7.9401 17.3958 8.05338 17.3008 8.14884C17.2058 8.2443 17.0928 8.32007 16.9685 8.37179C16.8441 8.42351 16.7108 8.45017 16.5761 8.45024L16.5739 8.4481ZM21.4286 -0.000118434H2.57143C1.88944 -0.000118434 0 -0.000118434 0 -0.000118434C0 -0.000118434 0 1.88932 0 2.57131V21.4285C0 22.1104 1.08821e-05 23.9998 1.08821e-05 23.9998C1.08821e-05 23.9998 1.88944 23.9999 2.57143 23.9999H21.4286C22.1106 23.9999 24 23.9998 24 23.9998C24 23.9998 24 22.1104 24 21.4285V2.57131C24 1.88932 24 -0.000244141 24 -0.000244141C24 -0.000244141 22.1106 -0.000118434 21.4286 -0.000118434ZM20.5114 15.5356C20.4423 16.9086 20.1289 18.1252 19.1266 19.1249C18.1243 20.1245 16.9087 20.4443 15.5373 20.5097C14.1225 20.5895 9.88071 20.5895 8.46589 20.5097C7.09286 20.4406 5.88054 20.1267 4.87661 19.1249C3.87268 18.1231 3.55714 16.906 3.49179 15.5356C3.41196 14.1202 3.41196 9.87792 3.49179 8.46417C3.56089 7.09113 3.87054 5.87452 4.87661 4.87488C5.88268 3.87524 7.09821 3.55917 8.46589 3.49381C9.88071 3.41399 14.1225 3.41399 15.5373 3.49381C16.9104 3.56292 18.1264 3.87685 19.1266 4.87863C20.1268 5.88042 20.4461 7.09756 20.5114 8.4706C20.5913 9.8806 20.5913 14.1192 20.5114 15.5356Z" fill="#1F5D34"/>
</g>
</g>
<defs>
<clipPath id="clip0_67_2844">
<rect width="24" height="24" rx="3" fill="white"/>
</clipPath>
</defs>
</svg>
