<svg width="24" height="24" viewBox="0 0 24 24" fill="none" xmlns="http://www.w3.org/2000/svg">
<g id="el:linkedin">
<g clip-path="url(#clip0_67_2850)">
<path id="Vector" d="M0 0V24H24V0H0ZM5.88574 4.71826C6.83634 4.72896 7.77274 5.38476 7.81348 6.52002C7.8338 7.52952 6.95406 8.29844 5.86084 8.32178H5.83448C4.89334 8.31092 3.97424 7.63866 3.93164 6.52002C3.94506 5.52176 4.78418 4.74194 5.88574 4.71826ZM16.084 9.4878C17.1291 9.49428 18.1154 9.80432 18.9258 10.6304C19.7679 11.5696 20.0383 12.8646 20.0684 14.1812V20.1694H16.6172V14.5884C16.6095 13.5423 16.2512 12.2708 14.8667 12.2285C14.0553 12.2372 13.4831 12.7087 13.0913 13.4971C12.9843 13.7508 12.9689 14.0425 12.9639 14.3335V20.1694H9.51416C9.52736 17.2519 9.5455 14.3346 9.53906 11.417C9.53906 10.5882 9.53108 10.0302 9.51416 9.74268H12.9639V11.2134C13.2567 10.7969 13.5814 10.402 14.0171 10.084C14.608 9.66228 15.3178 9.50062 16.084 9.4878ZM4.13526 9.74268H7.58496V20.1694H4.13526V9.74268Z" fill="#1F5D34"/>
</g>
</g>
<defs>
<clipPath id="clip0_67_2850">
<rect width="24" height="24" rx="3" fill="white"/>
</clipPath>
</defs>
</svg>
