<svg width="45" height="27" viewBox="0 0 45 27" fill="none" xmlns="http://www.w3.org/2000/svg">
<path id="&#226;&#128;&#156;" d="M44.032 0.744141C43.408 3.44814 42.7493 6.32548 42.056 9.37614C41.432 12.4268 40.8427 15.4081 40.288 18.3201C39.7333 21.1628 39.2827 23.7975 38.936 26.2241H24.688L23.96 25.0801C24.584 22.5841 25.3813 19.9495 26.352 17.1761C27.3227 14.4028 28.3627 11.5948 29.472 8.75214C30.6507 5.90947 31.7947 3.24014 32.904 0.744141H44.032ZM20.32 0.744141C19.696 3.44814 19.0373 6.32548 18.344 9.37614C17.72 12.4268 17.1307 15.4081 16.576 18.3201C16.0213 21.1628 15.5707 23.7975 15.224 26.2241H0.975986L0.247986 25.0801C0.871986 22.5841 1.66932 19.9495 2.63999 17.1761C3.61065 14.4028 4.65065 11.5948 5.75999 8.75214C6.93865 5.90947 8.08265 3.24014 9.19199 0.744141H20.32Z" fill="#3AAA60"/>
</svg>
