<svg width="64" height="64" viewBox="0 0 64 64" fill="none" xmlns="http://www.w3.org/2000/svg">
<g id="tdesign:saving-pot" clip-path="url(#clip0_30_1513)">
<path id="Vector" d="M13.8613 59.9999H28.8053L29.992 54.6665H36.6747L37.8613 59.9999H52.8053L54.4907 52.4185C64.224 44.2559 66.9973 30.0452 60.4267 18.6639C59.824 17.6239 59.1653 16.6372 58.4533 15.7092C58.9913 12.7508 58.5136 9.69736 57.0975 7.04469C55.6815 4.39202 53.4104 2.29588 50.653 1.09661C47.8955 -0.102673 44.8137 -0.334667 41.9077 0.438288C39.0018 1.21124 36.4425 2.94376 34.6453 5.35455C31.064 5.58121 27.4453 6.42921 23.968 7.90121L21.5147 8.94121L23.5893 13.8505L26.0453 12.8105C28.022 11.9722 30.0891 11.3655 32.2053 11.0025C31.6835 13.9404 32.1622 16.9685 33.5648 19.6021C34.9674 22.2358 37.213 24.3228 39.9421 25.5293C42.6712 26.7358 45.7261 26.992 48.618 26.2569C51.5099 25.5217 54.0717 23.8378 55.8933 21.4745C58.4178 25.9278 59.2573 31.1401 58.2586 36.1607C57.26 41.1814 54.4898 45.6757 50.4533 48.8239L49.696 49.4132L48.528 54.6665H42.1387L40.9547 49.3332H25.712L24.528 54.6665H18.1387L16.3547 46.6399L15.0187 46.1279C12.1813 45.0399 8.184 42.7412 5.33333 40.1812V27.9999H8.176L13.6347 18.9065L11.8533 14.4505C14.0027 14.7279 16.48 15.7865 18.7893 18.3279L20.584 20.3012L24.5307 16.7119L22.736 14.7385C17.688 9.18655 11.616 8.41855 7.39733 9.40255L4.37067 10.1065L7.69867 18.4265L5.15733 22.6665H0V42.4426L0.786667 43.2239C3.85333 46.2745 8.24 48.9839 11.76 50.5492L13.8613 59.9999ZM14.6667 30.6665H20.0107V25.3172H14.6667V30.6665ZM45.3333 21.3332C43.2116 21.3332 41.1768 20.4904 39.6765 18.9901C38.1762 17.4898 37.3333 15.4549 37.3333 13.3332C37.3333 11.2115 38.1762 9.17665 39.6765 7.67636C41.1768 6.17607 43.2116 5.33321 45.3333 5.33321C47.4551 5.33321 49.4899 6.17607 50.9902 7.67636C52.4905 9.17665 53.3333 11.2115 53.3333 13.3332C53.3333 15.4549 52.4905 17.4898 50.9902 18.9901C49.4899 20.4904 47.4551 21.3332 45.3333 21.3332Z" fill="#3AAA60"/>
</g>
<defs>
<clipPath id="clip0_30_1513">
<rect width="64" height="64" fill="white"/>
</clipPath>
</defs>
</svg>
