<svg width="80" height="80" viewBox="0 0 80 80" fill="none" xmlns="http://www.w3.org/2000/svg">
<g id="mdi:clock-fast">
<path id="Vector" d="M50 13.3333C57.0724 13.3333 63.8552 16.1428 68.8562 21.1437C73.8571 26.1447 76.6667 32.9275 76.6667 39.9999C76.6667 47.0724 73.8571 53.8551 68.8562 58.8561C63.8552 63.8571 57.0724 66.6666 50 66.6666C42.9276 66.6666 36.1448 63.8571 31.1438 58.8561C26.1428 53.8551 23.3333 47.0724 23.3333 39.9999C23.3333 32.9275 26.1428 26.1447 31.1438 21.1437C36.1448 16.1428 42.9276 13.3333 50 13.3333ZM50 19.9999C44.6957 19.9999 39.6086 22.1071 35.8579 25.8578C32.1071 29.6085 30 34.6956 30 39.9999C30 45.3042 32.1071 50.3913 35.8579 54.1421C39.6086 57.8928 44.6957 59.9999 50 59.9999C55.3043 59.9999 60.3914 57.8928 64.1421 54.1421C67.8929 50.3913 70 45.3042 70 39.9999C70 34.6956 67.8929 29.6085 64.1421 25.8578C60.3914 22.1071 55.3043 19.9999 50 19.9999ZM46.6667 26.6666H51.6667V39.2666L59.4333 47.0332L55.9 50.5666L46.6667 41.3333V26.6666ZM6.66667 59.9999C5.78261 59.9999 4.93477 59.6487 4.30965 59.0236C3.68453 58.3985 3.33334 57.5506 3.33334 56.6666C3.33334 55.7825 3.68453 54.9347 4.30965 54.3096C4.93477 53.6844 5.78261 53.3333 6.66667 53.3333H19.4333C20.4667 55.6999 21.8 57.9333 23.3333 59.9999H6.66667ZM10 43.3333C9.11595 43.3333 8.2681 42.9821 7.64298 42.3569C7.01786 41.7318 6.66667 40.884 6.66667 39.9999C6.66667 39.1159 7.01786 38.268 7.64298 37.6429C8.2681 37.0178 9.11595 36.6666 10 36.6666H16.8333L16.6667 39.9999L16.8333 43.3333H10ZM13.3333 26.6666C12.4493 26.6666 11.6014 26.3154 10.9763 25.6903C10.3512 25.0652 10 24.2173 10 23.3333C10 22.4492 10.3512 21.6014 10.9763 20.9762C11.6014 20.3511 12.4493 19.9999 13.3333 19.9999H23.3333C21.8 22.0666 20.4667 24.2999 19.4333 26.6666H13.3333Z" fill="#3AAA60"/>
</g>
</svg>
