<svg width="64" height="64" viewBox="0 0 64 64" fill="none" xmlns="http://www.w3.org/2000/svg">
<g id="material-symbols:request-quote-outline">
<path id="Vector" d="M29.3333 50.6666H34.6667V47.9999H37.3333C38.0889 47.9999 38.7227 47.7439 39.2347 47.2319C39.7467 46.7199 40.0018 46.087 40 45.3333V37.3333C40 36.5777 39.744 35.9439 39.232 35.4319C38.72 34.9199 38.0871 34.6648 37.3333 34.6666H29.3333V31.9999H40V26.6666H34.6667V23.9999H29.3333V26.6666H26.6667C25.9111 26.6666 25.2773 26.9226 24.7653 27.4346C24.2533 27.9466 23.9982 28.5795 24 29.3333V37.3333C24 38.0888 24.256 38.7226 24.768 39.2346C25.28 39.7466 25.9129 40.0017 26.6667 39.9999H34.6667V42.6666H24V47.9999H29.3333V50.6666ZM16 58.6666C14.5333 58.6666 13.2773 58.1439 12.232 57.0986C11.1867 56.0533 10.6649 54.7981 10.6667 53.3333V10.6666C10.6667 9.19992 11.1893 7.94392 12.2347 6.89859C13.28 5.85326 14.5351 5.33148 16 5.33326H37.3333L53.3333 21.3333V53.3333C53.3333 54.7999 52.8107 56.0559 51.7653 57.1013C50.72 58.1466 49.4649 58.6684 48 58.6666H16ZM34.6667 21.3333V10.6666H16V53.3333H48V21.3333H34.6667Z" fill="#3AAA60"/>
</g>
</svg>
